<?xml version="1.0" encoding="iso-8859-1"?>
<!-- Uploaded to: SVG Repo, www.svgrepo.com, Generator: SVG Repo Mixer Tools -->
<svg height="800px" width="800px" version="1.1" id="Layer_1" xmlns="http://www.w3.org/2000/svg" xmlns:xlink="http://www.w3.org/1999/xlink" 
	 viewBox="0 0 263.394 263.394" xml:space="preserve">
<g>
	<path style="fill:#1D1D1B;" d="M260.686,201.614c4.34,5.827,3.295,17.521-1.929,23.428c0.04,0.442-0.08,0.924-0.442,1.366
		c-14.989,18.606-38.94,17.32-60.761,16.155c-30.059-1.648-60.118-3.617-90.177-4.983c-28.21-1.286-57.506,10.167-85.636,4.059
		c-7.756-1.688-12.618-5.505-15.632-10.81c-0.402,0.683-1.688,0.683-1.929-0.241c-3.054-10.77-9.685-29.979,4.903-36.006
		c9.604-3.978,19.892,3.657,21.861,12.98c1.125-2.291,3.255-4.099,5.988-4.541c3.335-0.522,7.274,1.366,8.921,4.38
		c1.165-1.246,2.492-2.29,3.938-3.175c-1.728-47.218-2.652-94.919-0.161-142.137c-3.576-0.161-7.113-0.321-10.649-0.522
		c-0.442,0-0.643-0.281-0.764-0.603c-0.362-0.161-0.683-0.442-0.723-0.884c-0.643-12.016-0.201-24.152-0.362-36.167
		c0-1.165,0.804-1.768,1.688-1.849c0.08-0.683,0.603-1.326,1.326-1.447c6.148-0.683,12.98-0.764,19.088,0
		c0.522,0.08,0.964,0.321,1.246,0.643c0.402,0.08,0.723,0.281,0.804,0.804c0.723,4.702,0.964,9.403,0.964,14.145
		c2.291,0.121,4.581,0.241,6.912,0.281c2.492,0.04,5.184-0.281,7.595,0.281c-0.281-4.26-0.362-8.56-0.482-12.859
		c-0.04-1.005,1.005-2.21,2.09-2.09c6.189,0.683,12.337,0.643,18.526-0.121c0.723-0.08,1.206,0.161,1.527,0.563
		c0.683-0.201,1.487,0.04,1.648,0.764c0.884,4.702,1.005,9.644,1.005,14.427c3.978-0.241,7.917-0.522,11.895-0.683
		c0.241,0,0.442,0.04,0.603,0.08c-0.201-3.134-0.362-6.309-0.482-9.444c-0.04-1.848-0.643-4.38,0.964-5.787
		c1.688-1.527,5.345-0.764,7.394-0.764c3.376-0.04,6.751-0.04,10.127,0c0.643,0,1.125,0.241,1.487,0.643
		c0.563-0.442,1.607-0.201,1.808,0.603c0.522,2.25,0.683,4.621,0.884,6.952c0.161,1.728-0.08,4.019,0.281,5.827
		c0.161,0,0.402,0.04,0.683,0.08c0.362,0,0.723,0,1.085,0c1.286,0,2.532-0.04,3.818-0.12c2.291-0.121,4.702-0.563,7.033-0.402
		c0.08,0.04,0.201,0.08,0.281,0.08c-0.04-2.813,0.08-5.666,0.201-8.479c0.04-1.768-0.241-4.179,1.407-5.345
		c1.889-1.326,5.425-0.482,7.555-0.482c3.335,0.04,6.832-0.201,10.046,0.522c0.12,0.04,0.161,0.161,0.281,0.201
		c0.482-0.08,1.045,0.121,1.165,0.683c1.165,4.219,0.764,8.439,1.286,12.699c0.241,1.929-0.04,1.768,1.848,1.969
		c1.085,0.121,2.25-0.08,3.335-0.08c1.889-0.08,3.777-0.121,5.706-0.121c-0.402-4.34-0.08-8.801,0.04-13.141
		c0-1.125,0.884-2.009,2.009-2.049c4.139-0.08,9.645-0.683,13.502,0.965c0.321,0.12,0.603,0.362,0.844,0.683
		c1.005-0.804,2.773-0.321,2.934,1.366c1.206,11.774,0.402,24.433-1.005,36.167c-0.04,0.321-0.201,0.603-0.442,0.764
		c-0.08,0.804-0.643,1.567-1.688,1.567c-2.13,0-4.26,0-6.389,0c2.773,48.223-0.201,97.008,1.929,145.352c0,0.04,0,0.08,0,0.121
		c1.849,1.286,3.416,2.934,4.42,4.862c1.326-8.841,7.193-17.642,15.873-20.093c10.89-3.094,19.691-1.045,24.875,8.841
		C244.29,195.264,255.261,194.3,260.686,201.614z M255.703,223.997c2.612-4.822,4.179-11.774,2.773-16.557
		c-1.447-4.983-6.47-7.394-11.332-6.028c-2.733,0.804-4.863,2.692-6.872,4.621c1.125,1.326,2.009,2.773,2.492,4.179
		c0.522,1.447-1.607,2.21-2.371,1.005c-1.165-1.849-2.572-3.456-4.461-4.621c-1.848-1.085-3.858-1.326-5.827-2.09
		c-1.246-0.482-1.527-2.492,0-2.853c1.406-0.322,2.813-0.201,4.139,0.241c-2.371-3.617-5.505-6.108-10.489-6.59
		c-3.175-0.281-7.635,0.804-10.609,2.009c-7.073,2.813-11.935,12.578-13.382,19.771c-0.08,0.362-0.281,0.522-0.522,0.643
		c-0.281,1.406-2.572,1.969-3.215,0.522c-2.09-4.501-4.581-8.64-10.006-9.162c-5.666-0.563-8.519,3.094-11.975,6.751
		c-0.161,0.161-0.402,0.241-0.643,0.241c-0.08,0.523-0.201,1.005-0.402,1.527c-0.482,1.165-2.331,1.487-2.692,0
		c-1.447-6.068-7.394-9.042-13.342-7.434c-4.3,1.165-6.51,4.219-8.399,7.796c0.964,0.362,1.889,0.804,2.532,1.527
		c1.045,1.165,0,2.853-1.487,2.572c-1.487-0.281-2.813-1.165-4.3-1.487c-1.567-0.362-3.134-0.241-4.742-0.12
		c-1.567,0.12-1.648-2.13-0.362-2.572c1.045-0.362,2.291-0.563,3.576-0.643c-3.014-5.706-6.43-10.328-13.583-10.85
		c-6.872-0.482-12.538,3.496-16.798,8.479c-0.402,0.482-1.005,0.522-1.487,0.322c-0.442,0.04-0.924-0.08-1.326-0.402
		c-6.349-5.626-15.029-4.501-17.24,4.3c-0.402,1.487-2.13,1.688-3.215,0.844c-5.706-4.219-9.765-3.215-12.176,2.773
		c0.683,0.281,1.326,0.603,1.849,1.085c0.924,0.924,0.161,2.291-0.965,2.371c-1.607,0.161-3.134-0.643-4.661-1.045
		c-1.768-0.482-3.577-0.723-5.385-0.924c-1.808-0.241-1.929-2.853,0-2.853c1.648-0.04,3.295,0.12,4.903,0.402
		c-1.447-6.51-2.532-12.538-9.846-15.351c-6.148-2.371-12.618-0.281-17.28,3.978c0,0.12,0.04,0.281,0.04,0.402
		c-0.08,1.005-1.286,1.728-2.13,1.366c-0.764,0.04-1.527-0.804-1.085-1.607c-1.085-2.25-2.652-4.34-5.505-4.26
		c-3.376,0.08-5.546,3.456-5.465,6.55c0,0.08-0.04,0.121-0.04,0.161c0.643,0.362,1.246,0.764,1.728,1.286
		c0.844,0.884,0,2.773-1.286,2.25c-2.853-1.206-5.063-2.492-8.238-2.451c-1.648,0.04-1.567-2.291,0-2.451
		c1.326-0.161,2.773-0.08,4.219,0.161c-2.09-11.453-18.887-20.535-24.071-6.148c-1.125,3.135-1.286,6.389-0.964,9.685
		c5.104,15.471,13.502,21.7,31.184,23.75c12.578,1.447,25.277-1.608,37.574-3.737c2.371-0.402,4.782-0.764,7.153-1.045
		c15.472-1.728,30.943-0.523,46.535,0.321c20.053,1.085,40.065,2.17,60.078,3.215C211.016,239.147,236.454,242.924,255.703,223.997z
		 M197.393,25.239c-0.04,0.04-0.04,0.04-0.08,0.04c-2.13,0.402-4.26,0-6.43-0.121c-1.728-0.121-3.456-0.121-5.144-0.161
		c-0.241,3.898-0.442,7.836-1.125,11.614c1.165,1.045,0.723,3.416-1.326,3.577c-3.697,0.321-7.475,0.362-11.212,0.362
		c-1.969,0.04-3.777-0.201-4.782-2.13c-1.165-2.21-0.563-5.465-0.522-7.836c0.04-2.09,0.08-4.139,0.362-6.189
		c-2.09,0.281-4.179,0.161-6.309,0.12c-2.009-0.04-5.666-0.884-7.515-0.201c-0.884-0.121-0.884,0-0.08,0.442l-0.201,1.929
		c-0.08,1.085-0.201,2.17-0.321,3.255c-0.281,2.331-0.482,4.621-0.924,6.912c-0.201,1.005-1.125,1.165-1.849,0.844
		c-0.201,0.201-0.482,0.362-0.804,0.482c-3.054,0.884-6.55,0.804-9.685,0.844c-1.889,0.04-4.943,0.643-6.43-0.924
		c-1.527-1.648-0.844-4.862-0.844-6.832c0-2.13,0.08-4.3,0.241-6.47c-0.241,0.121-0.522,0.161-0.844,0.161
		c-3.416,0.04-6.872-0.201-10.328-0.201c-1.447,0-2.893,0.04-4.3,0.161l-0.04,1.848c-0.04,1.246-0.08,2.492-0.121,3.737
		c-0.08,2.492-0.241,4.983-0.442,7.474c-0.04,0.884-0.723,1.326-1.406,1.286c-0.161,0.884-0.804,1.688-1.969,1.768
		c-4.661,0.321-9.363,0.563-14.025,0.804c-1.165,0.08-2.13-1.005-2.13-2.13c0.04-4.581,0-9.323,0.482-13.944
		c-0.12,0.04-0.241,0.08-0.402,0.121c-5.506,0.683-11.011,0.764-16.516,0.321c-0.121,3.898-0.281,7.836-0.603,11.774
		c-0.08,1.045-0.924,1.487-1.688,1.366c-0.161,0.281-0.482,0.522-0.844,0.683c-2.532,0.884-5.425,0.563-8.077,0.522
		c-2.974-0.04-5.947-0.161-8.921-0.402c-1.085-0.08-2.049-0.884-2.009-2.009c0.08-4.581,0.161-9.162,0.442-13.703
		c-5.747,0.201-11.935-0.161-17.682-0.924c0,0.121,0.08,0.241,0.08,0.402c0.281,11.855,0.362,23.991-1.326,35.765
		c52-4.903,105.889-1.768,158.09-0.844C197.233,47.783,196.751,36.29,197.393,25.239z M186.262,205.23
		c1.165,0.08,2.331,0.322,3.496,0.723c-2.813-46.937-6.148-96.847,0.08-143.543c-45.49,0.121-91.623,1.728-137.073-0.201
		c0.08,46.816-0.563,93.552,0.643,140.369c3.737-1.286,7.836-1.407,11.734-0.04c5.586,2.009,11.292,8.077,12.377,14.427
		c2.934-3.175,8.399-3.416,12.9-1.246c1.125-2.733,3.054-4.943,5.385-6.47c-2.049-14.547-0.643-29.496-0.281-44.204
		c0.241-10.488-1.246-23.107,2.893-33.193c7.193-17.722,26.643-19.812,43.119-15.512c0.723,0.161,1.045,0.683,1.085,1.206
		c7.876,2.532,11.654,10.368,13.784,19.369c5.184,21.982,4.541,46.816,3.978,69.28c4.26,0.12,10.649,2.532,12.578,6.55
		C174.93,207.842,181.199,204.909,186.262,205.23z M156.364,206.717c0.161-20.374,5.867-79.608-18.285-87.886
		c-19.048-2.652-34.319,0.362-38.337,25.518c-1.045,6.51-0.442,14.145-0.603,20.696c-0.362,14.507,0.281,29.416-2.371,43.682
		c5.023-2.733,11.493-2.291,15.672,2.813c4.742-5.867,12.015-9.846,19.771-8.68c6.269,0.924,13.06,5.666,14.427,12.096
		C148.367,210.896,152.104,207.923,156.364,206.717z"/>
	<path style="fill:#CA9E67;" d="M258.476,207.44c1.406,4.782-0.161,11.734-2.773,16.557c-19.249,18.927-44.686,15.15-69.401,13.824
		c-20.013-1.045-40.025-2.13-60.078-3.215c-15.592-0.844-31.063-2.049-46.535-0.321l-0.844-8.118
		c1.125-0.08,1.889-1.447,0.965-2.371c-0.522-0.482-1.165-0.804-1.849-1.085c2.411-5.988,6.47-6.992,12.176-2.773
		c1.085,0.844,2.813,0.643,3.215-0.844c2.21-8.801,10.89-9.926,17.24-4.3c0.402,0.322,0.884,0.442,1.326,0.402
		c0.482,0.201,1.085,0.161,1.487-0.322c4.26-4.983,9.926-8.961,16.798-8.479c7.153,0.522,10.569,5.144,13.583,10.85
		c-1.286,0.08-2.532,0.281-3.576,0.643c-1.286,0.442-1.206,2.692,0.362,2.572c1.607-0.121,3.175-0.241,4.742,0.12
		c1.487,0.322,2.813,1.206,4.3,1.487s2.532-1.406,1.487-2.572c-0.643-0.723-1.567-1.165-2.532-1.527
		c1.889-3.577,4.099-6.631,8.399-7.796c5.947-1.607,11.895,1.366,13.342,7.434c0.362,1.487,2.21,1.165,2.692,0
		c0.201-0.522,0.322-1.005,0.402-1.527c0.241,0,0.482-0.08,0.643-0.241c3.456-3.657,6.309-7.314,11.975-6.751
		c5.425,0.523,7.917,4.662,10.006,9.162c0.643,1.447,2.934,0.884,3.215-0.522c0.241-0.121,0.442-0.281,0.522-0.643
		c1.447-7.193,6.309-16.958,13.382-19.771c2.974-1.206,7.434-2.29,10.609-2.009c4.983,0.482,8.118,2.974,10.489,6.59
		c-1.326-0.442-2.733-0.563-4.139-0.241c-1.527,0.362-1.246,2.371,0,2.853c1.969,0.764,3.978,1.005,5.827,2.09
		c1.889,1.165,3.295,2.773,4.461,4.621c0.764,1.206,2.893,0.442,2.371-1.005c-0.482-1.406-1.366-2.853-2.492-4.179
		c2.009-1.929,4.139-3.818,6.872-4.621C252.006,200.046,257.029,202.457,258.476,207.44z M243.165,225.846
		c0-0.563-0.964-0.723-1.045-0.121c-0.321,2.492-1.808,4.581-4.26,5.385c-0.804,0.281-0.442,1.567,0.362,1.286
		C241.115,231.391,243.044,228.94,243.165,225.846z M241.919,223.555c0.241-0.924-1.165-1.567-1.607-0.643
		c-0.764,1.527-1.808,2.572-3.496,3.094c-1.125,0.322-0.683,2.009,0.482,1.768C239.548,227.292,241.276,225.805,241.919,223.555z
		 M209.369,205.11c0.804-0.402,0.241-1.648-0.603-1.447c-2.974,0.764-4.179,4.019-2.813,6.671c0.563,1.125,2.13,0.161,1.648-0.965
		C206.837,207.722,207.842,205.833,209.369,205.11z M207.962,229.382c0.563-0.723-0.322-1.567-1.045-1.005
		c-1.607,1.286-3.175,2.29-5.224,2.773c-0.924,0.201-0.522,1.567,0.402,1.407C204.346,232.114,206.475,231.19,207.962,229.382z"/>
	<path style="fill:#1D1D1B;" d="M242.12,225.725c0.08-0.603,1.045-0.442,1.045,0.121c-0.12,3.094-2.049,5.546-4.943,6.55
		c-0.804,0.281-1.165-1.005-0.362-1.286C240.312,230.306,241.799,228.216,242.12,225.725z"/>
	<path style="fill:#1D1D1B;" d="M240.312,222.912c0.442-0.924,1.849-0.281,1.607,0.643c-0.643,2.25-2.371,3.737-4.621,4.219
		c-1.165,0.241-1.607-1.447-0.482-1.768C238.503,225.484,239.548,224.439,240.312,222.912z"/>
	<path style="fill:#1D1D1B;" d="M208.766,203.663c0.844-0.201,1.407,1.045,0.603,1.447c-1.527,0.723-2.532,2.612-1.768,4.26
		c0.482,1.125-1.085,2.09-1.648,0.965C204.587,207.682,205.792,204.427,208.766,203.663z"/>
	<path style="fill:#1D1D1B;" d="M206.917,228.377c0.723-0.563,1.607,0.281,1.045,1.005c-1.487,1.808-3.617,2.733-5.867,3.175
		c-0.924,0.161-1.326-1.206-0.402-1.407C203.743,230.668,205.31,229.663,206.917,228.377z"/>
	<path style="fill:#CA9E67;" d="M197.313,25.279c0.04,0,0.04,0,0.08-0.04c-0.643,11.051-0.161,22.544,0.442,33.595
		c-52.201-0.924-106.09-4.059-158.09,0.844c1.688-11.774,1.607-23.911,1.326-35.765c0-0.161-0.08-0.281-0.08-0.402
		c5.746,0.764,11.935,1.125,17.682,0.924c-0.281,4.541-0.362,9.122-0.442,13.703c-0.04,1.125,0.924,1.929,2.009,2.009
		c2.974,0.241,5.948,0.362,8.921,0.402c2.652,0.04,5.546,0.362,8.077-0.522c0.362-0.161,0.683-0.402,0.844-0.683
		c0.764,0.12,1.607-0.322,1.688-1.366c0.321-3.938,0.482-7.876,0.603-11.774c5.505,0.442,11.011,0.362,16.516-0.321
		c0.161-0.04,0.281-0.08,0.402-0.121c-0.482,4.621-0.442,9.363-0.482,13.944c0,1.125,0.964,2.21,2.13,2.13
		c4.662-0.241,9.363-0.482,14.025-0.804c1.165-0.08,1.808-0.884,1.969-1.768c0.683,0.04,1.366-0.402,1.406-1.286
		c0.201-2.492,0.362-4.983,0.442-7.474c0.04-1.246,0.08-2.492,0.121-3.737l0.04-1.848c1.406-0.121,2.853-0.161,4.3-0.161
		c3.456,0,6.912,0.241,10.328,0.201c0.322,0,0.603-0.04,0.844-0.161c-0.161,2.17-0.241,4.34-0.241,6.47
		c0,1.969-0.683,5.184,0.844,6.832c1.487,1.567,4.541,0.965,6.43,0.924c3.135-0.04,6.631,0.04,9.685-0.844
		c0.322-0.121,0.603-0.281,0.804-0.482c0.723,0.321,1.648,0.161,1.849-0.844c0.442-2.291,0.643-4.581,0.924-6.912
		c0.12-1.085,0.241-2.17,0.321-3.255l0.201-1.929c-0.804-0.442-0.804-0.563,0.08-0.442c1.849-0.683,5.506,0.161,7.515,0.201
		c2.13,0.04,4.219,0.161,6.309-0.12c-0.281,2.049-0.322,4.099-0.362,6.189c-0.04,2.371-0.643,5.626,0.522,7.836
		c1.005,1.929,2.813,2.17,4.782,2.13c3.737,0,7.515-0.04,11.212-0.362c2.049-0.161,2.492-2.532,1.326-3.577
		c0.683-3.777,0.884-7.716,1.125-11.614c1.688,0.04,3.416,0.04,5.144,0.161C193.053,25.279,195.183,25.681,197.313,25.279z
		 M194.54,51.56c0.201-1.688,0.161-3.376,0.04-5.063c-0.04-0.924-1.407-0.924-1.447,0c-0.121,1.688-0.161,3.376,0.04,5.063
		C193.295,52.404,194.42,52.404,194.54,51.56z M192.089,45.211c0.201-1.045-1.246-1.447-1.607-0.442
		c-0.603,1.688-1.005,3.295-1.406,5.063c-0.201,1.045,1.246,1.447,1.607,0.442C191.245,48.587,191.727,46.939,192.089,45.211z
		 M168.259,45.01c0.723,0.04,0.683-1.045,0-1.125c-1.969-0.201-3.697-0.964-5.184-2.25c-0.643-0.522-1.527,0.362-0.924,0.924
		C163.879,44.166,165.888,44.97,168.259,45.01z M167.375,41.554c0.723-0.201,0.603-1.366-0.161-1.326
		c-1.045,0.121-1.929-0.683-1.808-1.728c0.04-0.723-1.165-0.884-1.286-0.201C163.718,40.348,165.325,42.076,167.375,41.554z
		 M124.135,36.973c0.08-1.527,0.161-3.014,0.04-4.541c-0.08-0.804-1.205-0.804-1.286,0c-0.121,1.527-0.04,3.014,0.04,4.541
		C122.929,37.777,124.135,37.777,124.135,36.973z M118.951,38.46c0.241-2.009,0.563-3.978,0.522-5.988
		c0-0.522-0.764-0.643-0.884-0.121c-0.402,2.009-0.482,4.059-0.603,6.108C117.906,39.143,118.911,39.103,118.951,38.46z
		 M111.637,51.038c0.643-0.161,0.362-1.165-0.321-1.005c-1.929,0.362-3.858,0.563-5.867,0.442c-0.723,0-0.683,1.045,0,1.125
		C107.579,51.761,109.548,51.641,111.637,51.038z M107.579,52.967c0.522-0.161,0.321-0.924-0.241-0.804
		c-1.768,0.402-3.576,0.563-5.385,0.442c-0.603-0.04-0.563,0.804,0,0.844C103.922,53.69,105.69,53.57,107.579,52.967z
		 M78.966,42.559c0.683-0.281,0.402-1.406-0.281-1.125c-1.929,0.723-3.858,1.085-5.907,1.045c-0.683-0.04-0.683,1.005,0,1.045
		C74.948,43.684,76.957,43.403,78.966,42.559z M47.34,49.029c0.04-1.527,0-3.014-0.12-4.541c-0.08-0.643-1.005-0.643-1.085,0
		c-0.121,1.527-0.161,3.014-0.121,4.541C46.014,49.872,47.34,49.872,47.34,49.029z M43.362,53.248
		c0.161,0.924,1.688,0.723,1.567-0.201c-0.362-3.335-0.442-6.711-0.482-10.046c0-1.005-1.406-0.965-1.527,0
		C42.438,46.497,42.719,49.832,43.362,53.248z"/>
	<path style="fill:#1D1D1B;" d="M194.58,46.497c0.121,1.688,0.161,3.376-0.04,5.063c-0.12,0.844-1.246,0.844-1.366,0
		c-0.201-1.688-0.161-3.376-0.04-5.063C193.174,45.573,194.54,45.573,194.58,46.497z"/>
	<path style="fill:#1D1D1B;" d="M190.482,44.769c0.362-1.005,1.808-0.603,1.607,0.442c-0.362,1.728-0.844,3.376-1.407,5.063
		c-0.362,1.005-1.808,0.603-1.607-0.442C189.477,48.064,189.879,46.457,190.482,44.769z"/>
	<path style="fill:#CA9E67;" d="M189.758,205.954c-1.165-0.402-2.331-0.643-3.496-0.723c-5.063-0.322-11.332,2.612-13.301,7.515
		c-1.929-4.019-8.318-6.43-12.578-6.55c0.563-22.464,1.206-47.299-3.978-69.28c-2.13-9.002-5.907-16.838-13.784-19.369
		c-0.04-0.522-0.362-1.045-1.085-1.206c-16.476-4.3-35.926-2.21-43.119,15.512c-4.139,10.087-2.652,22.705-2.893,33.193
		c-0.362,14.708-1.768,29.657,0.281,44.204c-2.331,1.527-4.26,3.737-5.385,6.47c-4.501-2.17-9.966-1.929-12.9,1.246
		c-1.085-6.349-6.791-12.417-12.377-14.427c-3.898-1.366-7.997-1.246-11.734,0.04c-1.206-46.816-0.563-93.552-0.643-140.369
		c45.45,1.929,91.583,0.321,137.073,0.201C183.61,109.106,186.945,159.017,189.758,205.954z M185.056,187.147
		c0.08-2.813,0.201-5.666,0.04-8.519c-0.08-1.005-1.487-1.005-1.567,0c-0.161,2.853-0.04,5.706,0.04,8.519
		C183.61,188.111,185.016,188.111,185.056,187.147z M182.927,86.2c0.161,1.125,1.849,1.205,1.808,0
		c-0.08-2.371-0.281-4.702-0.522-7.033c-0.12-1.165-1.929-1.206-1.848,0C182.485,81.539,182.645,83.87,182.927,86.2z
		 M183.168,188.192c0.04-1.849,0.121-3.697,0.08-5.546c-0.04-1.206-1.849-1.206-1.889,0c-0.04,1.848,0.04,3.697,0.08,5.546
		C181.48,189.277,183.128,189.277,183.168,188.192z M181.038,91.425c0.201,0.924,1.648,0.723,1.607-0.201
		c-0.04-3.054-0.522-6.028-0.924-9.042c-0.12-1.165-1.929-1.206-1.848,0C180.194,85.276,180.435,88.37,181.038,91.425z
		 M154.114,114.893c0.683,0.603,1.607-0.322,1.005-1.005c-2.049-2.331-4.943-3.335-7.997-3.014c-0.844,0.12-0.884,1.407,0,1.366
		C149.773,112.12,152.144,113.125,154.114,114.893z M150.658,116.822c0.603,0.563,1.447-0.121,1.085-0.844
		c-1.688-3.175-5.465-4.26-8.801-3.376c-1.085,0.281-0.603,1.808,0.442,1.608C146.157,113.687,148.688,114.933,150.658,116.822z
		 M102.676,99.22c0.683-0.482,0.08-1.567-0.643-1.125c-1.527,0.965-3.054,1.929-4.541,2.974c-0.763,0.522-0.04,1.728,0.723,1.246
		C99.742,101.31,101.229,100.265,102.676,99.22z M95.603,100.185c0.442-0.723-0.643-1.648-1.206-0.924
		c-1.567,2.009-2.451,4.26-2.934,6.791c-0.161,1.005,1.366,1.487,1.567,0.442C93.554,104.244,94.478,102.194,95.603,100.185z
		 M92.629,68.559c1.165-0.281,0.643-1.889-0.482-1.728c-2.371,0.321-4.702,0.804-7.073,1.286c-1.246,0.241-0.723,2.13,0.522,1.889
		C87.968,69.564,90.299,69.121,92.629,68.559z M59.838,107.981c1.326-4.019,1.848-8.037,1.648-12.216
		c-0.04-0.964-1.487-1.005-1.527,0c0,3.978-0.442,7.957-1.205,11.895C58.592,108.383,59.597,108.664,59.838,107.981z
		 M59.476,191.406c0.683-2.451,1.005-4.742,0.844-7.233c-0.04-0.764-1.165-0.764-1.165,0c-0.08,2.291-0.402,4.621-0.964,6.872
		C57.989,191.849,59.235,192.21,59.476,191.406z M55.98,110.03c0.201,0.884,1.487,0.482,1.366-0.402
		c-0.442-2.612-0.402-5.224-0.362-7.836c0-0.804-1.286-1.005-1.407-0.201C55.096,104.404,55.377,107.217,55.98,110.03z
		 M55.458,191.165c0.08,1.045,1.688,1.085,1.608,0c-0.121-2.572-0.321-5.144-0.683-7.716c-0.121-0.764-1.406-0.563-1.406,0.201
		C55.016,186.182,55.217,188.674,55.458,191.165z"/>
	<path style="fill:#1D1D1B;" d="M185.097,178.627c0.161,2.853,0.04,5.706-0.04,8.519c-0.04,0.964-1.447,0.964-1.487,0
		c-0.08-2.813-0.201-5.666-0.04-8.519C183.61,177.623,185.016,177.623,185.097,178.627z"/>
	<path style="fill:#1D1D1B;" d="M184.735,86.2c0.04,1.205-1.648,1.125-1.808,0c-0.281-2.331-0.442-4.662-0.563-7.033
		c-0.08-1.206,1.728-1.165,1.848,0C184.454,81.499,184.655,83.829,184.735,86.2z"/>
	<path style="fill:#1D1D1B;" d="M183.248,182.646c0.04,1.848-0.04,3.697-0.08,5.546c-0.04,1.085-1.688,1.085-1.728,0
		c-0.04-1.849-0.12-3.697-0.08-5.546C181.4,181.44,183.208,181.44,183.248,182.646z"/>
	<path style="fill:#1D1D1B;" d="M182.645,91.224c0.04,0.924-1.406,1.125-1.607,0.201c-0.603-3.054-0.844-6.148-1.165-9.243
		c-0.08-1.206,1.728-1.165,1.848,0C182.123,85.196,182.605,88.169,182.645,91.224z"/>
	<path style="fill:#1D1D1B;" d="M168.259,43.885c0.683,0.08,0.723,1.165,0,1.125c-2.371-0.04-4.38-0.844-6.108-2.451
		c-0.603-0.563,0.281-1.447,0.924-0.924C164.562,42.92,166.29,43.684,168.259,43.885z"/>
	<path style="fill:#1D1D1B;" d="M167.214,40.228c0.764-0.04,0.884,1.125,0.161,1.326c-2.049,0.522-3.657-1.206-3.255-3.255
		c0.121-0.683,1.326-0.522,1.286,0.201C165.285,39.545,166.169,40.348,167.214,40.228z"/>
	<path style="fill:#CA9E67;" d="M138.079,118.831c24.152,8.278,18.445,67.512,18.285,87.886c-4.26,1.206-7.997,4.179-9.725,8.238
		c-1.366-6.43-8.158-11.172-14.427-12.096c-7.756-1.165-15.03,2.813-19.771,8.68c-4.179-5.104-10.649-5.546-15.672-2.813
		c2.652-14.266,2.009-29.175,2.371-43.682c0.161-6.55-0.442-14.186,0.603-20.696C103.761,119.193,119.031,116.179,138.079,118.831z"
		/>
	<path style="fill:#1D1D1B;" d="M155.118,113.888c0.603,0.683-0.321,1.607-1.005,1.005c-1.969-1.768-4.34-2.773-6.992-2.652
		c-0.884,0.04-0.844-1.246,0-1.366C150.175,110.553,153.069,111.557,155.118,113.888z"/>
	<path style="fill:#1D1D1B;" d="M151.743,115.978c0.362,0.723-0.482,1.407-1.085,0.844c-1.969-1.889-4.501-3.134-7.274-2.612
		c-1.045,0.201-1.527-1.326-0.442-1.608C146.277,111.718,150.055,112.803,151.743,115.978z"/>
	<path style="fill:#1D1D1B;" d="M124.175,32.432c0.121,1.527,0.04,3.014-0.04,4.541c0,0.804-1.206,0.804-1.206,0
		c-0.08-1.527-0.161-3.014-0.04-4.541C122.97,31.628,124.095,31.628,124.175,32.432z"/>
	<path style="fill:#1D1D1B;" d="M119.473,32.472c0.04,2.009-0.281,3.978-0.522,5.988c-0.04,0.643-1.045,0.683-0.965,0
		c0.121-2.049,0.201-4.099,0.603-6.108C118.71,31.829,119.473,31.95,119.473,32.472z"/>
	<path style="fill:#1D1D1B;" d="M111.316,50.033c0.683-0.161,0.965,0.844,0.321,1.005c-2.09,0.603-4.059,0.723-6.189,0.563
		c-0.683-0.08-0.723-1.125,0-1.125C107.458,50.596,109.387,50.395,111.316,50.033z"/>
	<path style="fill:#1D1D1B;" d="M107.337,52.163c0.563-0.121,0.764,0.643,0.241,0.804c-1.889,0.603-3.657,0.723-5.626,0.482
		c-0.563-0.04-0.603-0.884,0-0.844C103.761,52.726,105.569,52.565,107.337,52.163z"/>
	<path style="fill:#1D1D1B;" d="M102.033,98.095c0.723-0.442,1.326,0.643,0.643,1.125c-1.447,1.045-2.934,2.09-4.461,3.094
		c-0.764,0.482-1.487-0.723-0.723-1.246C98.979,100.024,100.506,99.06,102.033,98.095z"/>
	<path style="fill:#1D1D1B;" d="M94.398,99.261c0.563-0.723,1.648,0.201,1.206,0.924c-1.125,2.009-2.049,4.059-2.572,6.309
		c-0.201,1.045-1.728,0.563-1.567-0.442C91.946,103.52,92.83,101.27,94.398,99.261z"/>
	<path style="fill:#1D1D1B;" d="M92.147,66.831c1.125-0.161,1.648,1.447,0.482,1.728c-2.331,0.563-4.662,1.005-7.033,1.447
		c-1.246,0.241-1.768-1.648-0.522-1.889C87.445,67.635,89.776,67.152,92.147,66.831z"/>
	<path style="fill:#CA9E67;" d="M78.846,226.167l0.844,8.118c-2.371,0.281-4.782,0.643-7.153,1.045
		c-12.297,2.13-24.995,5.184-37.574,3.737c-17.682-2.049-26.081-8.278-31.184-23.75c-0.321-3.295-0.161-6.55,0.964-9.685
		c5.184-14.386,21.982-5.305,24.071,6.148c-1.447-0.241-2.893-0.322-4.219-0.161c-1.567,0.161-1.648,2.492,0,2.451
		c3.175-0.04,5.385,1.246,8.238,2.451c1.286,0.522,2.13-1.366,1.286-2.25c-0.482-0.522-1.085-0.924-1.728-1.286
		c0-0.04,0.04-0.08,0.04-0.161c-0.08-3.094,2.09-6.47,5.465-6.55c2.853-0.08,4.42,2.009,5.505,4.26
		c-0.442,0.804,0.321,1.648,1.085,1.607c0.844,0.362,2.049-0.362,2.13-1.366c0-0.12-0.04-0.281-0.04-0.402
		c4.661-4.26,11.131-6.349,17.28-3.978c7.314,2.813,8.399,8.841,9.846,15.351c-1.607-0.281-3.255-0.442-4.903-0.402
		c-1.929,0-1.808,2.612,0,2.853c1.808,0.201,3.617,0.442,5.385,0.924C75.711,225.524,77.238,226.328,78.846,226.167z
		 M64.138,218.974c0.121,0.723,1.206,0.402,1.085-0.322c-0.322-2.21-1.728-3.697-3.818-4.42c-0.442-0.12-0.764,0.603-0.321,0.804
		C62.771,215.799,63.776,217.166,64.138,218.974z M64.057,213.147c0.442,0.321,0.844-0.402,0.402-0.723
		c-1.165-0.844-2.331-1.688-3.496-2.492c-0.442-0.321-0.844,0.402-0.442,0.683C61.686,211.459,62.852,212.343,64.057,213.147z
		 M29.096,231.03c0.764,0,0.924-1.125,0.161-1.326c-2.09-0.522-4.059-1.125-5.867-2.411c-0.643-0.482-1.527,0.643-0.884,1.125
		C24.434,229.944,26.604,231.03,29.096,231.03z M26.082,234.084c0.844,0.08,0.965-1.205,0.201-1.406
		c-2.451-0.723-4.742-1.728-6.711-3.335c-0.764-0.683-1.929,0.402-1.125,1.125C20.657,232.516,23.068,233.762,26.082,234.084z
		 M18.366,205.391c0.764,0.281,1.286-0.964,0.563-1.286c-2.411-1.125-4.943-1.286-7.555-0.844c-0.603,0.08-0.442,1.085,0.161,1.045
		C13.946,204.105,16.116,204.587,18.366,205.391z"/>
	<path style="fill:#1D1D1B;" d="M78.685,41.433c0.683-0.281,0.964,0.844,0.281,1.125c-2.009,0.844-4.019,1.125-6.189,0.965
		c-0.683-0.04-0.683-1.085,0-1.045C74.827,42.518,76.756,42.157,78.685,41.433z"/>
	<path style="fill:#1D1D1B;" d="M65.223,218.652c0.12,0.723-0.965,1.045-1.085,0.322c-0.362-1.808-1.366-3.175-3.054-3.938
		c-0.442-0.201-0.121-0.924,0.321-0.804C63.495,214.955,64.901,216.442,65.223,218.652z"/>
	<path style="fill:#1D1D1B;" d="M64.459,212.424c0.442,0.321,0.04,1.045-0.402,0.723c-1.206-0.804-2.371-1.688-3.536-2.532
		c-0.402-0.281,0-1.005,0.442-0.683C62.129,210.736,63.294,211.58,64.459,212.424z"/>
	<path style="fill:#1D1D1B;" d="M61.486,95.764c0.201,4.179-0.321,8.198-1.648,12.216c-0.241,0.683-1.246,0.402-1.085-0.321
		c0.763-3.938,1.205-7.917,1.205-11.895C59.999,94.76,61.445,94.8,61.486,95.764z"/>
	<path style="fill:#1D1D1B;" d="M60.32,184.173c0.161,2.492-0.161,4.782-0.844,7.233c-0.241,0.804-1.487,0.442-1.286-0.362
		c0.563-2.25,0.884-4.581,0.964-6.872C59.155,183.409,60.28,183.409,60.32,184.173z"/>
	<path style="fill:#1D1D1B;" d="M57.346,109.629c0.12,0.884-1.165,1.286-1.366,0.402c-0.603-2.813-0.884-5.626-0.402-8.439
		c0.12-0.804,1.407-0.603,1.407,0.201C56.945,104.404,56.904,107.016,57.346,109.629z"/>
	<path style="fill:#1D1D1B;" d="M57.065,191.165c0.08,1.085-1.527,1.045-1.608,0c-0.241-2.491-0.442-4.983-0.482-7.515
		c0-0.764,1.286-0.964,1.406-0.201C56.744,186.022,56.945,188.593,57.065,191.165z"/>
	<path style="fill:#1D1D1B;" d="M47.22,44.488c0.12,1.527,0.161,3.014,0.12,4.541c0,0.844-1.326,0.844-1.326,0
		c-0.04-1.527,0-3.014,0.121-4.541C46.215,43.845,47.139,43.845,47.22,44.488z"/>
	<path style="fill:#1D1D1B;" d="M44.929,53.047c0.12,0.924-1.406,1.125-1.567,0.201c-0.643-3.416-0.924-6.751-0.442-10.247
		c0.121-0.965,1.527-1.005,1.527,0C44.487,46.336,44.567,49.712,44.929,53.047z"/>
	<path style="fill:#1D1D1B;" d="M29.257,229.703c0.764,0.201,0.603,1.326-0.161,1.326c-2.491,0-4.661-1.085-6.59-2.612
		c-0.643-0.482,0.241-1.607,0.884-1.125C25.198,228.578,27.167,229.181,29.257,229.703z"/>
	<path style="fill:#1D1D1B;" d="M26.283,232.677c0.764,0.201,0.643,1.487-0.201,1.406c-3.014-0.322-5.425-1.567-7.635-3.617
		c-0.804-0.723,0.362-1.808,1.125-1.125C21.541,230.949,23.832,231.954,26.283,232.677z"/>
	<path style="fill:#1D1D1B;" d="M18.929,204.105c0.723,0.322,0.201,1.567-0.563,1.286c-2.25-0.804-4.42-1.286-6.832-1.085
		c-0.603,0.04-0.764-0.964-0.161-1.045C13.986,202.819,16.518,202.98,18.929,204.105z"/>
</g>
</svg>