<?xml version="1.0" encoding="iso-8859-1"?>
<!-- Uploaded to: SVG Repo, www.svgrepo.com, Generator: SVG Repo Mixer Tools -->
<svg height="800px" width="800px" version="1.1" id="Layer_1" xmlns="http://www.w3.org/2000/svg" xmlns:xlink="http://www.w3.org/1999/xlink" 
	 viewBox="0 0 512 512" xml:space="preserve">
<g>
	<path style="fill:#76CC5B;" d="M256,263.972c4.852-39.758-37.575-81.091-59.333-59.333S216.242,268.824,256,263.972z"/>
	<path style="fill:#76CC5B;" d="M256,263.972c-4.852-39.758,37.575-81.091,59.333-59.333S295.759,268.824,256,263.972z"/>
</g>
<path style="fill:#8FE673;" d="M256,263.972c31.545-24.682,30.77-83.91,0-83.91S224.455,239.289,256,263.972z"/>
<path style="fill:#599944;" d="M298.345,221.628c-3.177-3.177-8.329-3.177-11.506,0l-22.704,22.704v-32.109
	c0-4.493-3.642-8.135-8.135-8.135c-4.493,0-8.135,3.643-8.135,8.135v32.109l-22.704-22.704c-3.177-3.177-8.329-3.177-11.505,0
	c-3.176,3.177-3.177,8.329,0,11.505l36.592,36.592l0,0c0.19,0.19,0.388,0.369,0.597,0.539c0.094,0.078,0.195,0.146,0.293,0.219
	c0.114,0.086,0.227,0.175,0.345,0.254c0.118,0.079,0.241,0.148,0.361,0.219c0.107,0.064,0.212,0.131,0.321,0.19
	c0.124,0.066,0.251,0.123,0.377,0.182c0.114,0.054,0.226,0.111,0.343,0.159c0.124,0.051,0.249,0.092,0.376,0.138
	c0.125,0.044,0.248,0.092,0.375,0.131c0.126,0.038,0.254,0.066,0.381,0.098c0.131,0.033,0.259,0.069,0.393,0.095
	c0.144,0.028,0.29,0.046,0.434,0.066c0.118,0.017,0.234,0.039,0.354,0.051c0.267,0.026,0.535,0.04,0.803,0.04
	s0.536-0.014,0.803-0.04c0.12-0.012,0.239-0.035,0.359-0.052c0.143-0.021,0.286-0.037,0.428-0.066
	c0.136-0.027,0.269-0.064,0.402-0.098c0.123-0.031,0.247-0.059,0.369-0.095c0.132-0.04,0.259-0.09,0.388-0.136
	c0.104-0.037,0.209-0.067,0.311-0.11c0.017-0.007,0.034-0.016,0.051-0.024c0.121-0.05,0.239-0.11,0.358-0.166
	c0.104-0.049,0.21-0.091,0.313-0.145c0.017-0.009,0.034-0.021,0.05-0.029c0.115-0.062,0.225-0.131,0.335-0.199
	c0.116-0.069,0.234-0.136,0.348-0.212c0.121-0.081,0.236-0.172,0.354-0.26c0.095-0.072,0.193-0.138,0.286-0.214
	c0.207-0.17,0.407-0.349,0.596-0.539l0,0l36.592-36.592C301.522,229.955,301.522,224.804,298.345,221.628z"/>
<g>
	<path style="fill:#76CC5B;" d="M91.393,263.972c4.852-39.758-37.575-81.091-59.333-59.333S51.635,268.824,91.393,263.972z"/>
	<path style="fill:#76CC5B;" d="M91.393,263.972c-4.852-39.758,37.575-81.091,59.333-59.333S131.152,268.824,91.393,263.972z"/>
</g>
<path style="fill:#8FE673;" d="M91.393,263.972c31.545-24.682,30.77-83.91,0-83.91S59.848,239.289,91.393,263.972z"/>
<path style="fill:#599944;" d="M133.738,221.628c-3.177-3.177-8.329-3.177-11.505,0l-22.704,22.704v-32.109
	c0-4.493-3.643-8.135-8.135-8.135c-4.493,0-8.135,3.643-8.135,8.135v32.109l-22.704-22.704c-3.177-3.177-8.329-3.177-11.506,0
	c-3.177,3.177-3.177,8.329,0,11.505l36.592,36.592l0,0c0.189,0.19,0.388,0.369,0.596,0.539c0.095,0.078,0.195,0.146,0.294,0.219
	c0.114,0.086,0.226,0.175,0.345,0.254c0.117,0.079,0.241,0.148,0.361,0.219c0.107,0.064,0.212,0.131,0.321,0.19
	c0.124,0.066,0.252,0.123,0.379,0.182c0.114,0.054,0.226,0.111,0.343,0.159c0.124,0.051,0.251,0.092,0.376,0.138
	c0.125,0.044,0.248,0.092,0.375,0.131c0.126,0.038,0.253,0.066,0.381,0.098c0.13,0.033,0.259,0.069,0.393,0.095
	c0.143,0.028,0.29,0.046,0.434,0.066c0.118,0.017,0.234,0.039,0.354,0.051c0.267,0.026,0.535,0.04,0.803,0.04
	s0.536-0.014,0.803-0.04c0.121-0.012,0.239-0.035,0.359-0.052c0.143-0.021,0.286-0.037,0.428-0.066
	c0.136-0.027,0.269-0.064,0.402-0.098c0.124-0.031,0.247-0.059,0.369-0.095c0.132-0.04,0.259-0.09,0.388-0.136
	c0.104-0.037,0.209-0.067,0.312-0.11c0.017-0.007,0.034-0.016,0.051-0.024c0.121-0.05,0.239-0.11,0.357-0.166
	c0.104-0.049,0.21-0.091,0.313-0.145c0.017-0.009,0.033-0.021,0.05-0.029c0.114-0.062,0.223-0.131,0.335-0.199
	c0.116-0.069,0.234-0.136,0.347-0.212c0.123-0.081,0.236-0.172,0.354-0.26c0.095-0.072,0.193-0.138,0.286-0.214
	c0.207-0.17,0.407-0.349,0.597-0.539l0,0l36.592-36.592C136.915,229.955,136.915,224.804,133.738,221.628z"/>
<path style="fill:#5B83CC;" d="M208.028,323.44c-1.586-5.902-2.442-12.199-2.442-18.736c0-33.559,22.571-60.763,50.414-60.763
	s50.414,27.205,50.414,60.763c0,6.539-0.857,12.837-2.443,18.739l-48.354-13.991L208.028,323.44z"/>
<g style="opacity:0.2;">
	<path d="M227.281,304.703c0-29.068,16.939-53.355,39.566-59.338c-3.495-0.924-7.121-1.425-10.847-1.425
		c-27.843,0-50.414,27.205-50.414,60.763c0,6.538,0.857,12.834,2.442,18.736l20.372-5.989
		C227.673,313.339,227.281,309.077,227.281,304.703z"/>
</g>
<path style="fill:#5B83CC;" d="M141.529,311.122c0.183-2.109,0.278-4.251,0.278-6.418c0-33.559-22.571-60.763-50.414-60.763
	S40.98,271.145,40.98,304.704c0,2.203,0.098,4.379,0.287,6.521l49.743,15.134L141.529,311.122z"/>
<path style="opacity:0.2;enable-background:new    ;" d="M62.962,311.225c-0.19-2.142-0.287-4.318-0.287-6.521
	c0-29.068,16.939-53.355,39.566-59.338c-3.495-0.924-7.121-1.425-10.847-1.425c-27.843,0-50.414,27.205-50.414,60.763
	c0,2.203,0.098,4.379,0.287,6.521l49.743,15.134l10.894-3.286L62.962,311.225z"/>
<g>
	<path style="fill:#76CC5B;" d="M420.606,263.972c-4.852-39.758,37.575-81.091,59.333-59.333
		C501.698,226.396,460.365,268.824,420.606,263.972z"/>
	<path style="fill:#76CC5B;" d="M420.606,263.972c4.852-39.758-37.575-81.091-59.333-59.333
		C339.514,226.396,380.848,268.824,420.606,263.972z"/>
</g>
<path style="fill:#8FE673;" d="M420.606,263.972c-31.545-24.682-30.77-83.91,0-83.91S452.151,239.289,420.606,263.972z"/>
<path style="fill:#599944;" d="M378.262,221.628c3.177-3.177,8.329-3.177,11.505,0l22.704,22.704v-32.109
	c0-4.493,3.643-8.135,8.135-8.135s8.135,3.643,8.135,8.135v32.109l22.704-22.704c3.177-3.177,8.329-3.177,11.506,0
	c3.177,3.177,3.177,8.329,0,11.505l-36.592,36.592l0,0c-0.189,0.19-0.388,0.369-0.596,0.539c-0.095,0.078-0.195,0.146-0.294,0.219
	c-0.114,0.086-0.226,0.175-0.345,0.254c-0.117,0.079-0.241,0.148-0.361,0.219c-0.107,0.064-0.212,0.131-0.321,0.19
	c-0.124,0.066-0.252,0.123-0.379,0.182c-0.114,0.054-0.226,0.111-0.343,0.159c-0.124,0.051-0.251,0.092-0.376,0.138
	c-0.125,0.044-0.248,0.092-0.375,0.131c-0.126,0.038-0.253,0.066-0.381,0.098c-0.13,0.033-0.259,0.069-0.393,0.095
	c-0.143,0.028-0.29,0.046-0.434,0.066c-0.118,0.017-0.234,0.039-0.354,0.051c-0.267,0.026-0.535,0.04-0.803,0.04
	s-0.536-0.014-0.803-0.04c-0.121-0.012-0.239-0.035-0.359-0.052c-0.143-0.021-0.286-0.037-0.428-0.066
	c-0.136-0.027-0.269-0.064-0.402-0.098c-0.124-0.031-0.247-0.059-0.369-0.095c-0.132-0.04-0.259-0.09-0.388-0.136
	c-0.104-0.037-0.209-0.067-0.312-0.11c-0.017-0.007-0.034-0.016-0.051-0.024c-0.121-0.05-0.239-0.11-0.357-0.166
	c-0.104-0.049-0.21-0.091-0.313-0.145c-0.017-0.009-0.033-0.021-0.05-0.029c-0.114-0.062-0.223-0.131-0.335-0.199
	c-0.116-0.069-0.234-0.136-0.347-0.212c-0.123-0.081-0.236-0.172-0.354-0.26c-0.095-0.072-0.193-0.138-0.286-0.214
	c-0.207-0.17-0.407-0.349-0.597-0.539l0,0l-36.592-36.592C375.085,229.955,375.085,224.804,378.262,221.628z"/>
<path style="fill:#5B83CC;" d="M370.47,311.122c-0.183-2.109-0.278-4.251-0.278-6.418c0-33.559,22.571-60.763,50.414-60.763
	s50.414,27.205,50.414,60.763c0,2.203-0.098,4.379-0.287,6.521l-49.743,15.134L370.47,311.122z"/>
<path style="opacity:0.2;enable-background:new    ;" d="M392.165,311.122c-0.183-2.11-0.278-4.25-0.278-6.418
	c0-29.068,16.94-53.355,39.566-59.338c-3.495-0.924-7.121-1.425-10.847-1.425c-27.843,0-50.414,27.205-50.414,60.763
	c0,2.168,0.094,4.309,0.278,6.418l50.519,15.237l10.801-3.286L392.165,311.122z"/>
<path style="fill:#B5763B;" d="M311.08,331.938c-10.698,0-21.395-2.411-31.147-7.235c-14.987-7.412-32.88-7.412-47.867,0
	c-19.503,9.648-42.791,9.648-62.295,0c-14.987-7.413-32.88-7.413-47.867,0c-19.503,9.648-42.791,9.648-62.295,0
	c-14.987-7.412-32.88-7.412-47.867,0c-4.026,1.99-8.907,0.342-10.899-3.685c-1.992-4.028-0.342-8.907,3.685-10.899
	c19.503-9.648,42.791-9.648,62.295,0c14.987,7.412,32.88,7.413,47.867,0c19.503-9.648,42.791-9.648,62.295,0
	c14.987,7.413,32.88,7.413,47.867,0c19.503-9.648,42.791-9.648,62.295,0c14.987,7.413,32.88,7.413,47.867,0
	c19.503-9.648,42.791-9.648,62.295,0c14.987,7.413,32.88,7.413,47.867,0c19.503-9.648,42.791-9.648,62.295,0
	c4.028,1.992,5.677,6.872,3.685,10.899c-1.993,4.028-6.872,5.677-10.899,3.685c-14.987-7.413-32.88-7.413-47.867,0
	c-19.503,9.648-42.791,9.648-62.295,0c-14.987-7.413-32.881-7.413-47.867,0C332.476,329.526,321.778,331.938,311.08,331.938z"/>
</svg>